<?xml version="1.0" standalone="no"?>
<!DOCTYPE svg PUBLIC "-//W3C//DTD SVG 20010904//EN"
 "http://www.w3.org/TR/2001/REC-SVG-20010904/DTD/svg10.dtd">
<svg version="1.0" xmlns="http://www.w3.org/2000/svg"
 width="512.000000pt" height="512.000000pt" viewBox="0 0 512.000000 512.000000"
 preserveAspectRatio="xMidYMid meet">
<metadata>
Created by potrace 1.14, written by Peter Selinger 2001-2017
</metadata>
<g transform="translate(0.000000,512.000000) scale(0.100000,-0.100000)"
fill="#000000" stroke="none">
<path d="M1340 5113 c-176 -31 -319 -107 -442 -234 -107 -113 -178 -252 -206
-409 -7 -35 -10 -726 -9 -1945 l2 -1890 32 -91 c95 -273 279 -446 553 -520
l85 -23 1225 2 c1224 2 1225 2 1292 24 296 94 497 316 553 607 19 101 19 3751
0 3852 -25 133 -74 237 -161 345 -110 138 -256 228 -449 276 -31 8 -2432 14
-2475 6z m1395 -808 c244 -60 443 -240 524 -474 33 -95 43 -156 42 -254 -3
-352 -250 -648 -600 -722 -148 -31 -332 -5 -476 68 -357 179 -507 614 -337
977 101 217 322 383 559 419 76 11 211 5 288 -14z m23 -1670 c173 -39 319
-116 449 -239 342 -322 396 -842 129 -1226 -118 -169 -319 -314 -511 -370
-196 -56 -432 -43 -622 34 -540 221 -754 880 -445 1376 146 234 417 410 677
437 28 3 51 7 53 8 10 8 207 -6 270 -20z"/>
<path d="M2491 3904 c-154 -32 -263 -170 -257 -329 3 -116 73 -232 171 -283
165 -86 373 -14 454 157 37 80 37 193 -1 271 -43 90 -120 156 -209 180 -62 17
-89 18 -158 4z"/>
<path d="M2515 2239 c-129 -11 -244 -66 -335 -158 -204 -208 -202 -539 5 -746
209 -209 543 -209 750 0 164 165 202 403 99 614 -93 190 -306 309 -519 290z"/>
</g>
</svg>
