<svg width="16" height="16" viewBox="0 0 16 16" xmlns="http://www.w3.org/2000/svg" xmlns:xlink="http://www.w3.org/1999/xlink" class="add-to-library__glyph add-to-library__glyph-add" aria-hidden="true"><path d="M5.174 11.211V6.816H.814A.82.82 0 010 6.007c0-.445.377-.816.813-.816h4.361V.795c0-.437.377-.792.822-.792.444 0 .822.355.822.792V5.19h4.369c.444 0 .813.37.813.816a.815.815 0 01-.813.809h-4.37v4.395c0 .43-.377.792-.821.792-.445 0-.822-.363-.822-.792z" transform="translate(2 2)"></path></svg>