<svg xmlns="http://www.w3.org/2000/svg" viewBox="0 0 512.001 512.001" style="enable-background:new 0 0 512.001 512.001" xml:space="preserve"><path d="M256.001 120.644c-18.172 0-32.956 14.784-32.956 32.956 0 18.172 14.784 32.956 32.956 32.956s32.956-14.784 32.956-32.956c.001-18.172-14.784-32.956-32.956-32.956zM256.001 287.719c-29.388 0-53.296 23.909-53.296 53.296 0 29.388 23.909 53.297 53.296 53.297s53.296-23.909 53.296-53.297c0-29.387-23.909-53.296-53.296-53.296z"/><path d="M366.413 0H145.59c-42.717 0-77.471 34.753-77.471 77.469v357.063c0 42.716 34.753 77.469 77.469 77.469h220.824c42.717 0 77.469-34.753 77.469-77.469V77.469C443.882 34.753 409.129 0 366.413 0zM256.001 79.301c40.97 0 74.299 33.331 74.299 74.299s-33.331 74.299-74.299 74.299-74.299-33.331-74.299-74.299 33.33-74.299 74.299-74.299zm0 356.354c-52.185 0-94.639-42.456-94.639-94.64s42.456-94.639 94.639-94.639 94.639 42.456 94.639 94.639c0 52.185-42.455 94.64-94.639 94.64z"/></svg>