<svg width="16" height="16" viewBox="0 0 16 16" xmlns="http://www.w3.org/2000/svg" fill-rule="evenodd" clip-rule="evenodd" stroke-linejoin="round" stroke-miterlimit="2" class="dt-play-button__pause-glyph"><path d="M9.918.464h2.672a.89.89 0 01.89.89v13.291a.89.89 0 01-.89.891H9.918a.89.89 0 01-.89-.89V1.354a.89.89 0 01.89-.891zm-6.371 0h2.398c.567 0 1.027.46 1.027 1.028v13.016c0 .568-.46 1.028-1.027 1.028H3.547c-.567 0-1.028-.46-1.028-1.028V1.492c0-.568.46-1.028 1.028-1.028z" fill-rule="nonzero"></path></svg>